Coordinates
version=1
nRows=29
nColumns=22
inDegrees=yes

Units are S.I. units (second, meters, Newtons, ...)
If the header above contains a line with 'inDegrees', this indicates whether rotational values are in degrees (yes) or radians (no).

endheader
time	pelvis_tilt	pelvis_list	pelvis_rotation	pelvis_tx	pelvis_ty	pelvis_tz	hip_flexion_r	hip_adduction_r	hip_rotation_r	knee_angle_r	ankle_angle_r	subtalar_angle_r	hip_flexion_l	hip_adduction_l	hip_rotation_l	knee_angle_l	ankle_angle_l	subtalar_angle_l	lumbar_extension	lumbar_bending	lumbar_rotation
      4.64000000	     -3.51435824	      0.22647020	      1.48157860	     -0.87213972	      1.01064584	      0.32630571	      3.29623086	      0.76820790	    -10.01473328	    -18.30392593	     14.89296549	      1.50515888	     24.45789913	     -6.57656865	    -11.19919333	    -26.61205606	      9.67705089	     10.26899227	     -4.76361458	     -5.14872635	      1.07028849
      4.65000000	     -3.48213382	      0.20389085	      1.27538113	     -0.87521002	      1.01115369	      0.32704513	      3.44421941	      0.83800439	     -9.79508038	    -18.25781606	     14.72388389	      1.33436007	     24.28750228	     -6.71424730	    -10.97512928	    -27.76647389	      9.71819328	      9.81331015	     -4.67563635	     -5.08917391	      1.12589629
      4.66000000	     -3.40084141	      0.15785159	      1.05401447	     -0.87808360	      1.01167865	      0.32774283	      3.51772725	      0.93203513	     -9.55628568	    -18.19216969	     14.59616204	      1.29192671	     24.02100895	     -6.87777772	    -10.78554080	    -28.88265476	      9.82924028	      9.55243573	     -4.63427439	     -5.00060431	      1.20448468
      4.67000000	     -3.33534593	      0.10336798	      0.83867265	     -0.88081027	      1.01213275	      0.32833513	      3.60609288	      1.02734799	     -9.32698683	    -18.14346139	     14.44278845	      1.24144458	     23.73081986	     -7.03015156	    -10.59634531	    -29.94376641	      9.95079780	      9.22423875	     -4.56912635	     -4.89444601	      1.27358756
      4.68000000	     -3.26938404	      0.05050672	      0.63336559	     -0.88337820	      1.01255307	      0.32884625	      3.69007065	      1.11571818	     -9.11890508	    -18.11248603	     14.28283087	      1.20492508	     23.39423519	     -7.16139190	    -10.40910767	    -30.93381974	     10.08854530	      8.89122945	     -4.49848203	     -4.79065434	      1.32451214
      4.69000000	     -3.20092026	     -0.00552369	      0.44251850	     -0.88578956	      1.01295291	      0.32926853	      3.76418494	      1.20329427	     -8.93538633	    -18.09425046	     14.11139063	      1.18867121	     23.01025397	     -7.27362939	    -10.21813704	    -31.84701329	     10.25068787	      8.57462876	     -4.42446163	     -4.68101577	      1.35721695
      4.70000000	     -3.13167827	     -0.06283636	      0.27251735	     -0.88805100	      1.01333531	      0.32958764	      3.82977692	      1.28697079	     -8.77884951	    -18.08649175	     13.93209767	      1.18880787	     22.58238795	     -7.36043451	    -10.01398591	    -32.67776849	     10.44213592	      8.28392105	     -4.34674888	     -4.56700546	      1.36551137
      4.71000000	     -3.06289221	     -0.12032576	      0.12836383	     -0.89017612	      1.01370033	      0.32981911	      3.88588804	      1.36679242	     -8.64762627	    -18.07768047	     13.75511289	      1.19274566	     22.11698741	     -7.42109691	     -9.79470635	    -33.42603342	     10.64514623	      8.00053060	     -4.26603854	     -4.45343223	      1.33785713
      4.72000000	     -2.98822479	     -0.18000956	      0.01265754	     -0.89217484	      1.01405850	      0.32992572	      3.92568610	      1.44153906	     -8.53485883	    -18.06107177	     13.58775451	      1.18494092	     21.60919619	     -7.45246822	     -9.55449300	    -34.08673843	     10.84538867	      7.69060243	     -4.19153639	     -4.32997258	      1.27260390
      4.73000000	     -2.93286103	     -0.21774909	     -0.07878139	     -0.89401970	      1.01437175	      0.32994330	      3.96619984	      1.48723155	     -8.43832615	    -18.01572578	     13.45106940	      1.17247792	     21.07871504	     -7.43064982	     -9.29418187	    -34.65238578	     11.11441745	      7.46422209	     -4.08742755	     -4.23749337	      1.18553717
      4.74000000	     -2.87796079	     -0.25583878	     -0.14254437	     -0.89574605	      1.01467099	      0.32984631	      3.99307195	      1.52671597	     -8.35208841	    -17.95094526	     13.32285347	      1.14427913	     20.51896023	     -7.38073125	     -9.01515578	    -35.13420377	     11.35665029	      7.22846459	     -3.98233650	     -4.14014525	      1.06860400
      4.75000000	     -2.80916496	     -0.30084337	     -0.18598874	     -0.89738853	      1.01497843	      0.32966205	      4.00595159	      1.56715115	     -8.28922794	    -17.89502414	     13.19340207	      1.09250341	     19.91478767	     -7.31371634	     -8.72250243	    -35.52650756	     11.54003883	      6.93702490	     -3.89999510	     -4.03478898	      0.91696025
      4.76000000	     -2.75909572	     -0.33989395	     -0.21917011	     -0.89891613	      1.01524291	      0.32939096	      4.03297491	      1.59570181	     -8.23645663	    -17.84217732	     13.07202081	      1.04147995	     19.29631118	     -7.21974509	     -8.42971586	    -35.82709801	     11.68835463	      6.65596243	     -3.79155253	     -3.93592463	      0.76116076
      4.77000000	     -2.72627538	     -0.38577985	     -0.24094314	     -0.90033096	      1.01546340	      0.32904359	      4.06839380	      1.62790190	     -8.19750897	    -17.78408570	     12.94203169	      0.99996737	     18.66414154	     -7.11779343	     -8.14500556	    -36.03502430	     11.79530197	      6.38127618	     -3.65901744	     -3.83120706	      0.59572693
      4.78000000	     -2.69225713	     -0.44505430	     -0.25716575	     -0.90167326	      1.01565138	      0.32863183	      4.10361023	      1.67069120	     -8.16740836	    -17.74045128	     12.80672502	      0.95896330	     18.00931685	     -7.01818059	     -7.86930632	    -36.16313090	     11.80505022	      6.06743564	     -3.53268066	     -3.71428826	      0.42882031
      4.79000000	     -2.64889693	     -0.51930898	     -0.27933754	     -0.90294701	      1.01579789	      0.32816254	      4.14186710	      1.72235064	     -8.15780333	    -17.73489495	     12.70206555	      0.90836163	     17.32017457	     -6.93288403	     -7.63747168	    -36.20375054	     11.72279647	      5.65557510	     -3.42225458	     -3.58143399	      0.28588706
      4.80000000	     -2.64151835	     -0.61491021	     -0.29146106	     -0.90410424	      1.01586300	      0.32763584	      4.19399337	      1.79730268	     -8.14768262	    -17.69646638	     12.55124721	      0.88996079	     16.64454808	     -6.86971547	     -7.43920858	    -36.14561573	     11.56612468	      5.35204323	     -3.26276746	     -3.42839078	      0.12312386
      4.81000000	     -2.60546612	     -0.72955518	     -0.30831520	     -0.90516544	      1.01589643	      0.32703872	      4.21994585	      1.88448067	     -8.16292851	    -17.68598991	     12.46034780	      0.85520262	     15.90894080	     -6.82688674	     -7.29219018	    -35.97692462	     11.37043280	      4.92650856	     -3.13946458	     -3.25448261	      0.00124296
      4.82000000	     -2.59199445	     -0.86935317	     -0.31971355	     -0.90612413	      1.01585433	      0.32639234	      4.25301674	      1.99807661	     -8.17463435	    -17.65742696	     12.34761432	      0.83990774	     15.17634288	     -6.82053790	     -7.21002874	    -35.69288729	     11.09511883	      4.60224149	     -2.98661197	     -3.05664901	     -0.13143513
      4.83000000	     -2.58195383	     -1.03061695	     -0.32805493	     -0.90698276	      1.01575666	      0.32569178	      4.28024150	      2.13145555	     -8.18971253	    -17.62656956	     12.24834024	      0.83039804	     14.42253761	     -6.84657444	     -7.19831956	    -35.27377798	     10.78800999	      4.34378678	     -2.82850363	     -2.83806695	     -0.25730937
      4.84000000	     -2.57903450	     -1.21123470	     -0.33065906	     -0.90774768	      1.01560039	      0.32492870	      4.30630746	      2.28119052	     -8.21041323	    -17.59339414	     12.16871722	      0.82512938	     13.65186120	     -6.90389265	     -7.26491563	    -34.70213184	     10.48066804	      4.16926620	     -2.66114576	     -2.60053032	     -0.37879528
      4.85000000	     -2.58378033	     -1.40726902	     -0.32450066	     -0.90842624	      1.01539825	      0.32409339	      4.33248999	      2.44303954	     -8.23536622	    -17.55704927	     12.10234781	      0.82444533	     12.86606207	     -6.98775757	     -7.41548808	    -33.96210693	     10.22707053	      4.09401634	     -2.48409740	     -2.34640768	     -0.50098194
      4.86000000	     -2.59039417	     -1.61007970	     -0.30857845	     -0.90901674	      1.01516800	      0.32317957	      4.35333275	      2.60664889	     -8.26875919	    -17.51829289	     12.05374677	      0.82609560	     12.05878898	     -7.08875099	     -7.66062090	    -33.04083060	     10.08296173	      4.10358987	     -2.30307227	     -2.08566568	     -0.62800237
      4.87000000	     -2.61070976	     -1.81261264	     -0.28422124	     -0.90954474	      1.01490513	      0.32217568	      4.38992593	      2.76257895	     -8.31417040	    -17.48801393	     11.99033364	      0.83440249	     11.25052101	     -7.19833938	     -8.01257831	    -31.94212590	     10.09667862	      4.17308375	     -2.10754226	     -1.82255587	     -0.76425784
      4.88000000	     -2.60710293	     -2.00514703	     -0.24376947	     -0.90995683	      1.01468328	      0.32107277	      4.38078604	      2.90616932	     -8.34374025	    -17.43634144	     11.98573068	      0.83608250	     10.39627120	     -7.29400939	     -8.43815396	    -30.66306595	     10.25241786	      4.28144744	     -1.93208720	     -1.57128142	     -0.90110446
      4.89000000	     -2.61024923	     -2.17847245	     -0.19029036	     -0.91030488	      1.01446943	      0.31985801	      4.37892312	      3.02157888	     -8.38539851	    -17.39120424	     11.96558057	      0.84201397	      9.54852299	     -7.36851814	     -8.96623475	    -29.24846589	     10.53659160	      4.37726297	     -1.74791382	     -1.33716951	     -1.05288023
      4.90000000	     -2.60296644	     -2.32318901	     -0.11797349	     -0.91058260	      1.01430147	      0.31852247	      4.35898902	      3.10011228	     -8.43861671	    -17.34108018	     11.94606928	      0.84879127	      8.69827160	     -7.40449479	     -9.57804002	    -27.73791563	     10.88436091	      4.44099216	     -1.57455773	     -1.13151241	     -1.22344049
      4.91000000	     -2.58970735	     -2.43865809	     -0.02794021	     -0.91080826	      1.01417860	      0.31707173	      4.32880680	      3.14111119	     -8.49963804	    -17.29058449	     11.93620839	      0.85404688	      7.86104034	     -7.39514349	    -10.23879173	    -26.18105318	     11.25454575	      4.45218302	     -1.40779364	     -0.95581134	     -1.39867106
      4.92000000	     -2.57036896	     -2.51936885	      0.09072887	     -0.91100957	      1.01410680	      0.31549399	      4.28999276	      3.13764529	     -8.58640679	    -17.23973211	     11.92713125	      0.85940813	      7.05429616	     -7.33075999	    -10.91199884	    -24.63406911	     11.59512710	      4.41427112	     -1.25165090	     -0.81749256	     -1.59530311
